<svg xmlns="http://www.w3.org/2000/svg" viewBox="0 0 512 512" fill="#9DA5AE">
	<path d="M482,316h-18.26l15.813-9.13c6.939-4.007,11.903-10.476,13.978-18.216c2.075-7.74,1.01-15.825-2.997-22.765l-68-117.779c-4.006-6.94-10.476-11.904-18.216-13.979c-7.743-2.074-15.826-1.01-22.765,2.997l-15.813,9.13l9.129-15.812c4.007-6.94,5.071-15.025,2.998-22.765c-2.074-7.74-7.039-14.21-13.979-18.216l-117.779-68c-6.94-4.007-15.024-5.072-22.765-2.997c-7.74,2.074-14.21,7.038-18.216,13.978L196,48.26V30c0-16.542-13.458-30-30-30H30C13.458,0,0,13.458,0,30v452c0,16.542,13.458,30,30,30h68h68h316c16.542,0,30-13.458,30-30V346C512,329.458,498.542,316,482,316z M176,482c0,5.514-4.486,10-10,10H98H30c-5.514,0-10-4.486-10-10V30c0-5.514,4.486-10,10-10h136c5.514,0,10,4.486,10,10V482zM391.554,154.45c2.313-1.334,5.007-1.692,7.588-0.999c2.58,0.691,4.736,2.346,6.072,4.659l68,117.779c1.336,2.313,1.69,5.008,0.999,7.588c-0.691,2.58-2.346,4.736-4.659,6.072l-82.562,47.667l-65.75-113.883l24.499-42.433L391.554,154.45z M369.671,347.217l-91.22,52.666l-29.571-51.217l60.814-105.333L369.671,347.217z M196,88.259l26.45-45.813c1.336-2.313,3.492-3.967,6.071-4.659c2.584-0.692,5.275-0.336,7.589,0.999l117.779,68c2.313,1.335,3.969,3.492,4.659,6.071c0.691,2.58,0.337,5.275-0.999,7.588l-47.667,82.561L196,137.257V88.259z M196,160.351l103.883,59.977l-52.666,91.221L196,281.979V160.351z M196,305.073l41.217,23.796L196,400.259V305.073z M241.333,492H194.28c1.11-3.13,1.72-6.494,1.72-10v-11.42l45.333-26.173V492z M196,447.486v-7.287c0.079-0.123,0.169-0.234,0.243-0.362l41.091-71.171l23.797,41.217L196,447.486z M492,482c0,5.514-4.486,10-10,10H261.333v-57.163c0-0.641-0.066-1.265-0.181-1.872l105.514-60.919v45.184c0,5.522,4.478,10,10,10c5.522,0,10-4.478,10-10v-56.731L429.099,336H482c5.514,0,10,4.486,10,10V482z" />
	<path d="M98,376c-20.953,0-38,17.047-38,38s17.047,38,38,38s38-17.047,38-38S118.953,376,98,376z M98,432c-9.925,0-18-8.075-18-18s8.075-18,18-18s18,8.075,18,18S107.925,432,98,432z" />
	<path d="M383.729,449.43c-1.859-1.861-4.429-2.93-7.069-2.93c-2.63,0-5.2,1.069-7.061,2.93c-1.87,1.86-2.93,4.44-2.93,7.07s1.06,5.21,2.93,7.069c1.86,1.86,4.431,2.931,7.061,2.931c2.64,0,5.21-1.07,7.069-2.931c1.87-1.859,2.94-4.439,2.94-7.069S385.599,451.29,383.729,449.43z" />
	<path d="M54.333,100.333c-5.522,0-10,4.477-10,10v108.552c0,5.524,4.478,10.001,10,10.001c5.522,0,10-4.477,10-10V110.333C64.333,104.81,59.855,100.333,54.333,100.333z" />
	<path d="M54.333,248.86c-5.522,0-10,4.477-10,10v0.191c0,5.522,4.478,10,10,10c5.522,0,10-4.478,10-10v-0.191C64.333,253.337,59.855,248.86,54.333,248.86z" />
</svg>
